<svg width="14" height="17" viewBox="0 0 14 17" fill="none" xmlns="http://www.w3.org/2000/svg">
<path d="M11.25 11.7333C10.68 11.7333 10.17 11.9833 9.78 12.375L4.4325 8.91667C4.47 8.725 4.5 8.53333 4.5 8.33333C4.5 8.13333 4.47 7.94167 4.4325 7.75L9.72 4.325C10.125 4.74167 10.6575 5 11.25 5C12.495 5 13.5 3.88333 13.5 2.5C13.5 1.11667 12.495 0 11.25 0C10.005 0 9 1.11667 9 2.5C9 2.7 9.03 2.89167 9.0675 3.08333L3.78 6.50833C3.375 6.09167 2.8425 5.83333 2.25 5.83333C1.005 5.83333 0 6.95 0 8.33333C0 9.71667 1.005 10.8333 2.25 10.8333C2.8425 10.8333 3.375 10.575 3.78 10.1583L9.12 13.625C9.0825 13.8 9.06 13.9833 9.06 14.1667C9.06 15.5083 10.0425 16.6 11.25 16.6C12.4575 16.6 13.44 15.5083 13.44 14.1667C13.44 12.825 12.4575 11.7333 11.25 11.7333ZM11.25 1.66667C11.6625 1.66667 12 2.04167 12 2.5C12 2.95833 11.6625 3.33333 11.25 3.33333C10.8375 3.33333 10.5 2.95833 10.5 2.5C10.5 2.04167 10.8375 1.66667 11.25 1.66667ZM2.25 9.16667C1.8375 9.16667 1.5 8.79167 1.5 8.33333C1.5 7.875 1.8375 7.5 2.25 7.5C2.6625 7.5 3 7.875 3 8.33333C3 8.79167 2.6625 9.16667 2.25 9.16667ZM11.25 15.0167C10.8375 15.0167 10.5 14.6417 10.5 14.1833C10.5 13.725 10.8375 13.35 11.25 13.35C11.6625 13.35 12 13.725 12 14.1833C12 14.6417 11.6625 15.0167 11.25 15.0167Z" fill="white"/>
</svg>
